<svg width="1080" height="1080" viewBox="0 0 1080 1080" fill="none" xmlns="http://www.w3.org/2000/svg">
<g clip-path="url(#clip0_807_2)">
<mask id="mask0_807_2" style="mask-type:alpha" maskUnits="userSpaceOnUse" x="0" y="0" width="1080" height="1080">
<path d="M0 358.56C0 63.2858 63.2858 0 358.56 0H721.44C1016.71 0 1080 63.2858 1080 358.56V721.44C1080 1016.71 1016.71 1080 721.44 1080H358.56C63.2858 1080 0 1016.71 0 721.44V358.56Z" fill="#C4C4C4"/>
</mask>
<g mask="url(#mask0_807_2)">
<path d="M539.682 539.682V-533C672.213 -533 803.597 -508.44 927.179 -460.564L539.682 539.682Z" fill="#EF4444"/>
<path d="M539.682 539.674L927.179 -460.572C1050.76 -412.696 1164.4 -342.334 1262.34 -253.048L539.682 539.674Z" fill="#F97315"/>
<path d="M539.682 539.665L1262.34 -253.057C1360.28 -163.771 1440.83 -57.1079 1499.91 61.5294L539.682 539.665Z" fill="#F59E0C"/>
<path d="M539.682 539.678L1499.91 61.543C1558.98 180.18 1595.56 308.738 1607.79 440.704L539.682 539.678Z" fill="#EBB305"/>
<path d="M539.682 539.686L1607.79 440.711C1620.02 572.677 1607.68 705.767 1571.41 833.239L539.682 539.686Z" fill="#84CC15"/>
<path d="M539.682 539.682L1571.41 833.235C1535.15 960.707 1475.57 1080.35 1395.7 1186.12L539.682 539.682Z" fill="#22C55D"/>
<path d="M539.682 539.682L1395.7 1186.12C1315.83 1291.88 1217.06 1381.93 1104.38 1451.69L539.682 539.682Z" fill="#12B981"/>
<path d="M539.682 539.682L1104.38 1451.69C991.695 1521.46 867.061 1569.75 736.786 1594.1L539.682 539.682Z" fill="#15B8A6"/>
<path d="M539.681 539.682L736.786 1594.1C606.511 1618.45 472.851 1618.45 342.576 1594.1L539.681 539.682Z" fill="#06B6D4"/>
<path d="M539.679 539.682L342.574 1594.1C212.299 1569.75 87.6649 1521.46 -25.0156 1451.69L539.679 539.682Z" fill="#0CA5E9"/>
<path d="M539.683 539.682L-25.0116 1451.69C-137.692 1381.93 -236.468 1291.88 -316.336 1186.12L539.683 539.682Z" fill="#3C82F6"/>
<path d="M539.682 539.682L-316.336 1186.12C-396.205 1080.35 -455.782 960.707 -492.051 833.235L539.682 539.682Z" fill="#6466F1"/>
<path d="M539.682 539.686L-492.051 833.239C-528.32 705.767 -540.653 572.677 -528.424 440.711L539.682 539.686Z" fill="#8B5CF6"/>
<path d="M539.684 539.678L-528.422 440.704C-516.193 308.738 -479.616 180.18 -420.541 61.543L539.684 539.678Z" fill="#A855F7"/>
<path d="M539.679 539.665L-420.547 61.5294C-361.473 -57.1079 -280.924 -163.771 -182.983 -253.057L539.679 539.665Z" fill="#D946EF"/>
<path d="M539.677 539.674L-182.984 -253.048C-85.0424 -342.334 28.5974 -412.696 152.179 -460.572L539.677 539.674Z" fill="#EC4899"/>
<path d="M539.683 539.682L152.186 -460.564C275.767 -508.44 407.151 -533 539.683 -533V539.682Z" fill="#F43F5F"/>
<path fill-rule="evenodd" clip-rule="evenodd" d="M512.118 290.685C512.118 329.17 480.909 360.369 442.412 360.369C403.914 360.369 372.706 329.17 372.706 290.685C372.706 252.199 403.914 221 442.412 221C480.909 221 512.118 252.199 512.118 290.685ZM445.51 437.796C445.51 429.243 438.575 422.31 430.02 422.31H318.49C309.935 422.31 303 429.243 303 437.796V622.073C303 701.632 342.226 772.033 402.399 815H402V859H540C670.891 859 777 752.924 777 622.073V437.796C777 429.243 770.065 422.31 761.51 422.31H648.431C639.876 422.31 632.941 429.243 632.941 437.796V633.687C632.941 682.008 587.561 721.18 539.225 721.18C490.89 721.18 445.51 682.008 445.51 633.687V437.796ZM707.294 290.685C707.294 329.17 676.086 360.369 637.588 360.369C599.091 360.369 567.882 329.17 567.882 290.685C567.882 252.199 599.091 221 637.588 221C676.086 221 707.294 252.199 707.294 290.685Z" fill="#FAFAFA"/>
<path d="M303 530.475C303 539.034 309.935 545.972 318.49 545.972H371.157V843.504C371.157 852.062 378.092 859 386.647 859H479.588C488.143 859 495.078 852.062 495.078 843.504V545.972H583.373V680.791C583.373 779.213 663.127 859 761.51 859C770.065 859 777 852.062 777 843.504V750.525C777 741.966 770.065 735.028 761.51 735.028C731.567 735.028 707.294 710.745 707.294 680.791V545.972H761.51C770.065 545.972 777 539.034 777 530.475V437.496C777 428.938 770.065 422 761.51 422H318.49C309.935 422 303 428.938 303 437.496V530.475Z" fill="#18181B"/>
</g>
</g>
<defs>
<clipPath id="clip0_807_2">
<rect width="1080" height="1080" fill="white"/>
</clipPath>
</defs>
</svg>
